<?xml version="1.0" standalone="no"?>
<!DOCTYPE svg PUBLIC "-//W3C//DTD SVG 20010904//EN"
 "http://www.w3.org/TR/2001/REC-SVG-20010904/DTD/svg10.dtd">
<svg version="1.0" xmlns="http://www.w3.org/2000/svg"
 width="256.000000pt" height="256.000000pt" viewBox="0 0 256.000000 256.000000"
 preserveAspectRatio="xMidYMid meet">
<metadata>
Created by potrace 1.11, written by Peter Selinger 2001-2013
</metadata>
<g transform="translate(0.000000,256.000000) scale(0.100000,-0.100000)"
fill="#000000" stroke="none">
<path d="M1146 2445 c-4 -20 -4 -40 -1 -45 3 -6 2 -10 -3 -10 -5 0 -9 -10 -8
-22 1 -16 -4 -22 -14 -20 -12 3 -13 1 -2 -9 13 -14 17 -33 4 -25 -5 3 -8 -5
-7 -17 1 -12 -3 -28 -9 -36 -8 -11 -8 -13 0 -8 9 5 10 -3 4 -28 -8 -38 -5 -44
23 -40 9 2 15 -1 12 -5 -3 -5 -14 -7 -25 -5 -18 3 -24 -5 -21 -27 0 -3 -7 -5
-17 -4 -9 2 -17 12 -17 22 -1 11 -7 18 -15 16 -11 -3 -12 -1 -4 8 9 9 17 9 31
1 15 -7 20 -7 20 3 0 7 -5 13 -11 13 -31 -1 -47 4 -42 12 4 5 2 11 -3 13 -6 1
-11 15 -13 30 -8 56 -18 39 -19 -30 -1 -40 -2 -77 -3 -84 -1 -15 -26 -23 -26
-8 0 6 5 8 10 5 16 -10 11 1 -7 16 -11 9 -14 10 -9 2 5 -9 2 -11 -8 -7 -9 3
-16 10 -16 16 0 5 5 6 10 3 15 -9 12 4 -4 21 -8 8 -22 11 -33 8 -16 -6 -15 -5
2 9 11 9 15 17 9 17 -14 0 -36 48 -28 61 3 5 2 9 -3 8 -21 -4 -31 2 -29 19 0
9 -4 16 -11 15 -7 -2 -10 3 -7 11 3 8 -4 31 -16 52 -21 37 -21 38 -16 9 3 -16
8 -51 12 -77 3 -26 10 -46 14 -43 5 3 12 1 15 -5 4 -6 2 -9 -3 -8 -11 3 -12 0
-12 -38 0 -17 4 -23 13 -19 6 4 1 -2 -12 -13 -18 -14 -21 -21 -11 -27 9 -6 11
-4 5 5 -5 8 -3 11 6 8 17 -6 13 -37 -7 -58 -10 -10 -14 -11 -14 -2 0 7 -7 12
-15 10 -8 -2 -28 17 -46 42 -19 28 -28 36 -24 21 6 -18 4 -22 -6 -16 -8 5 -3
-4 11 -20 22 -25 23 -27 5 -21 -18 7 -18 5 3 -14 12 -12 20 -25 17 -31 -4 -5
0 -9 7 -9 9 0 9 -3 -2 -10 -12 -8 -12 -10 -1 -10 11 0 11 -3 1 -15 -9 -11 -16
-12 -31 -2 -10 6 -19 15 -19 20 0 4 4 6 8 3 4 -2 14 -1 21 3 7 5 0 8 -20 9
-18 0 -36 7 -40 14 -12 19 -2 23 18 7 16 -13 17 -12 4 4 -8 11 -21 15 -32 12
-21 -7 -26 10 -6 18 10 4 10 6 0 6 -7 1 -22 -8 -33 -19 -11 -11 -20 -16 -20
-12 0 4 5 13 12 20 9 9 5 17 -16 37 -15 14 -32 23 -37 19 -5 -3 -8 -2 -7 3 4
14 -21 52 -42 63 -20 11 -20 11 -1 -24 11 -19 17 -37 14 -40 -4 -3 -2 -6 3 -6
6 0 16 -16 24 -35 8 -19 18 -35 22 -35 5 0 6 -5 3 -10 -4 -6 -11 -7 -17 -4 -7
4 -8 2 -4 -5 4 -6 12 -9 17 -6 5 4 9 1 9 -5 0 -6 5 -8 12 -4 7 4 8 3 4 -5 -4
-6 -3 -18 4 -26 9 -10 7 -16 -7 -25 -15 -9 -15 -11 -1 -6 16 5 56 -40 45 -50
-9 -10 -47 -13 -42 -3 5 8 -1 11 -21 8 -3 0 -12 8 -19 18 -11 15 -16 16 -27 5
-9 -9 -10 -15 -2 -20 6 -4 14 -18 18 -32 l7 -25 -19 22 -20 23 2 -24 c1 -19 6
-22 29 -20 15 2 27 -1 27 -6 0 -6 -7 -10 -15 -10 -9 0 -12 -6 -8 -17 5 -16 4
-15 -9 1 -9 12 -20 16 -28 11 -9 -6 -11 -4 -5 4 5 9 2 12 -11 9 -11 -2 -18
-10 -16 -17 1 -7 -2 -10 -8 -6 -8 5 -7 11 1 21 11 13 2 19 -23 15 -13 -2 -9
17 4 22 7 2 3 2 -9 1 -12 -2 -28 2 -36 10 -11 11 -17 12 -27 3 -8 -7 -11 -8
-7 -1 4 6 -10 19 -32 30 -22 10 -37 23 -34 28 4 5 1 6 -5 2 -6 -4 -22 -2 -34
4 -18 9 -15 5 9 -19 18 -17 37 -39 42 -49 9 -15 12 -15 22 -2 9 13 10 13 6 0
-2 -8 2 -21 10 -28 15 -15 8 -36 -9 -26 -6 4 -8 3 -5 -3 4 -6 23 -9 44 -7 25
2 32 0 23 -6 -12 -8 -10 -13 10 -27 14 -10 28 -17 32 -15 5 1 7 -1 7 -6 -3
-19 2 -33 11 -27 5 3 10 1 10 -5 0 -11 -40 -7 -62 6 -9 5 -8 2 1 -10 8 -9 20
-15 28 -12 8 3 11 1 8 -4 -4 -6 1 -7 12 -3 13 4 15 3 7 -6 -8 -9 -21 -8 -55 5
-24 9 -49 17 -56 18 -7 1 -16 5 -19 9 -4 4 -14 7 -23 7 -10 0 -6 -7 12 -18 15
-10 25 -22 22 -25 -3 -4 -2 -5 1 -2 10 7 44 -14 44 -27 0 -6 10 -19 22 -29 11
-11 19 -19 17 -20 -2 0 -12 -2 -22 -4 -14 -3 -17 1 -12 13 3 9 3 13 -1 9 -4
-4 -13 1 -21 11 -13 15 -13 15 -4 -5 16 -31 15 -32 -26 -22 -21 4 -39 6 -42 3
-2 -2 -13 4 -24 13 -11 10 -17 12 -13 6 8 -14 -10 -18 -18 -5 -6 10 -42 9 -52
-1 -4 -4 -12 -3 -18 2 -6 4 -29 11 -50 14 -34 6 -37 5 -20 -7 10 -7 34 -18 51
-25 18 -7 30 -18 27 -23 -4 -6 4 -5 16 2 15 8 20 8 15 1 -4 -7 8 -17 30 -27
20 -8 33 -19 30 -23 -3 -5 4 -7 15 -4 11 3 20 0 20 -6 0 -6 6 -11 14 -11 8 0
18 -5 22 -12 4 -7 3 -8 -4 -4 -7 4 -12 2 -12 -4 0 -6 -4 -8 -10 -5 -5 3 -10 2
-10 -3 0 -6 11 -9 24 -8 18 1 23 6 21 23 -1 12 2 20 6 17 5 -3 9 -14 9 -24 0
-10 5 -20 12 -22 9 -3 9 -6 0 -12 -7 -4 -12 -2 -12 5 0 7 -7 4 -15 -7 -15 -19
-15 -19 -9 1 5 18 4 18 -8 4 -9 -12 -20 -14 -36 -8 -14 5 -22 5 -22 -3 0 -7
-5 -6 -15 2 -11 9 -15 9 -15 1 0 -7 -4 -10 -8 -7 -5 3 -9 -1 -9 -7 0 -8 12
-12 29 -11 15 1 28 -3 28 -8 0 -6 7 -4 17 3 15 13 15 12 4 -10 -9 -16 -10 -21
-1 -16 7 4 11 1 9 -6 -1 -8 -1 -21 0 -29 1 -13 2 -13 11 0 5 8 10 10 10 4 0
-6 -8 -18 -17 -25 -9 -8 -14 -9 -10 -3 4 7 -1 18 -10 25 -10 8 -14 9 -10 2 14
-23 -105 -40 -133 -19 -13 9 -13 9 -2 -6 12 -15 10 -17 -15 -17 -15 0 -37 -2
-48 -5 -11 -2 -29 -5 -39 -5 -47 -2 21 -22 72 -22 12 1 22 -3 22 -7 0 -4 12
-7 28 -8 79 -2 122 -10 118 -21 -3 -6 2 -14 10 -17 9 -3 13 -10 10 -14 -3 -5
1 -9 9 -9 8 0 12 4 9 9 -7 10 7 10 24 -1 9 -5 -2 -12 -35 -21 -26 -7 -52 -16
-58 -19 -5 -3 -19 -7 -29 -8 -43 -7 -28 -15 22 -12 52 4 53 3 48 -21 -5 -22
-4 -21 8 4 13 29 14 29 21 7 6 -19 12 -22 33 -16 l27 7 -30 -26 c-22 -19 -32
-22 -42 -14 -11 9 -12 7 -6 -8 6 -17 5 -17 -10 -5 -15 12 -17 12 -11 -3 7 -18
-14 -19 -29 -1 -5 6 -6 0 -2 -12 5 -18 2 -21 -19 -19 -14 2 -23 -1 -20 -5 3
-5 0 -9 -6 -9 -6 0 -8 -4 -5 -10 4 -6 -1 -7 -11 -3 -12 5 -15 3 -9 -6 6 -10 3
-11 -15 -1 -13 7 -20 8 -16 2 3 -6 -3 -13 -14 -17 -11 -3 -20 -11 -20 -16 0
-6 -4 -8 -8 -5 -4 2 -14 0 -22 -5 -14 -10 -9 -9 85 5 11 2 26 -1 33 -7 9 -8
12 -7 10 3 -2 7 8 14 22 15 14 2 34 5 45 8 12 3 27 -3 38 -17 10 -11 16 -15
12 -9 -11 23 -14 54 -4 48 5 -4 9 -14 9 -23 0 -13 5 -12 20 8 11 14 20 20 20
13 0 -6 9 -10 19 -8 11 2 22 -3 25 -10 8 -22 -11 -28 -23 -8 -11 20 -20 21
-32 1 -12 -18 -11 -28 2 -28 5 0 7 4 4 10 -3 5 1 10 9 10 9 0 16 -4 16 -9 0
-16 -27 -31 -46 -25 -15 5 -16 4 -4 -5 12 -8 8 -13 -20 -25 -19 -8 -28 -15
-20 -16 13 0 13 -1 0 -10 -11 -8 -7 -9 14 -4 22 5 27 4 21 -6 -5 -9 -4 -11 4
-6 9 6 9 11 0 22 -14 17 -9 17 25 4 17 -6 27 -6 32 2 4 6 3 8 -3 5 -5 -3 -10
0 -10 8 0 11 4 12 13 4 8 -6 14 -6 18 0 8 12 39 7 44 -7 2 -7 -3 -15 -12 -18
-9 -3 -16 -12 -16 -20 0 -17 -12 -18 -29 -2 -11 11 -12 10 -6 -1 6 -10 4 -13
-6 -9 -9 4 -15 -2 -16 -16 -5 -44 -10 -61 -20 -61 -6 0 -38 -27 -71 -61 -51
-51 -57 -60 -37 -56 14 2 25 8 25 12 0 7 47 33 63 34 13 1 26 29 20 41 -4 5
-2 6 3 2 5 -5 9 -14 9 -20 0 -5 6 -12 13 -15 7 -2 10 2 6 12 -5 12 -2 15 12 9
13 -5 15 -3 9 8 -8 12 -6 12 9 0 9 -8 16 -10 15 -5 -4 21 2 28 11 14 8 -13 10
-12 10 3 0 9 7 17 15 17 8 0 12 -6 9 -14 -8 -20 8 -26 30 -11 10 8 15 19 10
26 -5 8 -3 10 6 4 9 -5 11 -4 6 4 -4 6 -12 9 -17 5 -5 -3 -7 -9 -4 -14 3 -4
-1 -13 -9 -19 -10 -9 -13 -5 -12 17 1 24 5 27 31 26 17 -1 32 -2 34 -3 7 -2
-32 -56 -47 -65 -12 -7 -12 -10 -1 -17 12 -7 11 -9 -1 -9 -17 0 -53 -57 -41
-65 5 -2 11 5 14 16 3 12 10 18 16 15 5 -4 13 0 18 7 4 7 16 17 27 20 15 6 16
10 6 22 -7 8 -9 15 -5 15 4 0 14 -8 21 -17 10 -15 8 -20 -14 -35 -15 -10 -22
-18 -17 -18 6 1 19 7 29 15 10 8 23 12 28 9 5 -3 7 0 6 7 -2 7 7 14 19 15 12
1 20 -2 17 -7 -2 -4 -11 -6 -20 -2 -8 3 -14 2 -12 -3 4 -15 -13 -54 -23 -54
-6 0 -8 -4 -4 -9 3 -6 14 -8 25 -6 12 2 18 0 15 -5 -3 -4 -13 -7 -22 -6 -23 4
-52 -26 -41 -41 6 -7 2 -13 -11 -18 -12 -4 -18 -12 -14 -21 3 -7 0 -14 -6 -14
-6 0 -10 -3 -9 -8 4 -16 -14 -52 -24 -46 -7 4 -8 2 -4 -5 4 -6 2 -18 -4 -26
-20 -24 -3 -17 27 11 15 15 27 30 25 35 -1 5 1 8 5 8 19 -3 36 2 30 8 -4 3 2
13 14 21 17 12 18 16 7 30 -11 13 -11 14 2 7 8 -5 21 -10 28 -11 10 -2 11 1 1
12 -7 8 -8 14 -3 13 22 -4 35 2 28 13 -4 7 -3 8 4 4 7 -4 12 -1 12 7 0 8 16
27 35 41 27 21 33 23 28 9 -6 -16 -5 -17 13 -3 18 14 18 14 3 -5 -9 -11 -14
-25 -12 -32 2 -6 0 -14 -6 -17 -12 -8 -41 3 -41 16 0 5 4 7 9 4 5 -3 14 1 21
9 9 10 9 15 1 15 -6 0 -11 -5 -11 -10 0 -6 -5 -9 -11 -8 -24 6 -19 -22 5 -33
32 -15 33 -23 4 -38 -14 -7 -15 -9 -5 -6 15 4 17 1 11 -18 -3 -12 -11 -29 -17
-37 -6 -8 1 -4 16 10 17 14 25 30 22 39 -3 9 -3 12 1 8 4 -3 20 3 35 14 27 19
49 19 49 -1 0 -5 -7 -7 -15 -4 -8 4 -15 1 -15 -5 0 -6 6 -10 13 -9 6 2 12 -4
12 -12 0 -8 4 -21 9 -28 7 -11 4 -12 -12 -3 -30 16 -34 14 -15 -7 10 -11 23
-17 28 -15 6 3 3 -1 -5 -9 -8 -7 -15 -22 -14 -33 0 -11 -3 -30 -8 -43 -5 -15
-4 -21 2 -17 6 3 10 2 10 -4 0 -5 -4 -11 -9 -13 -6 -1 -12 -23 -15 -47 -5 -40
-4 -42 9 -25 8 11 15 27 15 37 0 10 7 20 15 23 8 4 12 11 9 16 -4 6 -1 14 7
18 10 7 10 11 -1 24 -11 14 -11 16 2 11 10 -4 19 4 28 24 7 17 17 31 22 31 6
0 4 -8 -3 -17 -13 -16 -12 -17 4 -4 12 10 15 17 7 25 -15 15 -12 22 15 34 14
6 25 17 24 24 0 10 -2 10 -6 1 -2 -7 -9 -13 -15 -13 -6 0 -3 9 7 20 10 11 14
20 10 20 -5 0 -4 5 3 12 9 9 15 9 24 0 10 -10 10 -15 -2 -22 -10 -7 -11 -10
-2 -10 8 0 12 -22 13 -72 1 -40 3 -65 6 -55 2 9 8 17 12 17 4 0 7 8 7 18 1 9
5 26 9 36 7 15 5 17 -6 11 -11 -6 -12 -5 -2 5 10 11 15 11 28 0 12 -10 18 -10
30 0 13 10 15 9 15 -9 0 -12 -4 -19 -10 -16 -5 3 -10 1 -10 -4 0 -6 6 -11 14
-11 8 0 18 -5 22 -12 5 -8 2 -9 -10 -5 -14 5 -15 3 -6 -13 6 -10 9 -23 9 -27
-1 -4 0 -15 3 -23 22 -64 25 -79 17 -74 -5 3 -4 -7 1 -21 6 -15 10 -38 10 -52
0 -15 2 -24 4 -22 5 5 15 75 16 107 0 13 3 21 8 19 4 -3 7 6 7 19 0 13 -4 24
-8 24 -5 0 -5 5 -2 10 4 6 10 8 15 5 5 -3 12 0 16 6 4 8 3 9 -4 5 -8 -5 -12 2
-12 19 0 22 4 26 18 21 15 -5 14 -4 -2 9 -10 8 -23 12 -29 8 -6 -3 -7 -1 -3 6
4 6 12 9 17 6 5 -4 9 -3 10 2 1 4 2 21 4 38 1 16 7 31 14 33 6 2 9 8 6 13 -4
5 1 6 9 3 14 -5 13 -8 -2 -23 -10 -9 -16 -15 -13 -14 2 2 11 -3 20 -10 14 -11
14 -10 2 6 -7 9 -9 17 -3 17 13 0 23 -28 12 -35 -4 -3 -14 -4 -22 -2 -7 2 -9
2 -5 -1 4 -2 3 -10 -4 -18 -9 -11 -8 -15 5 -20 9 -3 13 -11 9 -17 -4 -6 -1 -7
7 -2 10 6 9 11 -5 22 -20 14 -19 15 25 17 25 1 28 -1 15 -11 -11 -7 -12 -13
-6 -18 6 -3 11 -11 11 -16 0 -6 -5 -7 -12 -3 -7 4 -8 3 -4 -5 4 -6 11 -9 16
-6 4 3 10 0 12 -7 3 -7 7 -2 10 10 4 14 2 20 -4 15 -7 -4 -8 -1 -3 7 13 22 14
91 1 83 -6 -4 -5 1 3 10 10 13 10 17 1 17 -10 0 -10 3 0 15 12 14 15 13 33 -6
15 -16 17 -23 7 -32 -10 -9 -11 -9 -5 2 5 10 4 12 -4 7 -6 -4 -9 -12 -6 -17 4
-5 1 -9 -6 -9 -7 0 -9 -3 -6 -6 4 -4 18 1 32 10 14 9 25 13 25 9 0 -5 -9 -14
-20 -21 -24 -14 -18 -32 10 -32 25 0 35 -17 20 -35 -9 -11 -7 -12 12 -7 21 5
22 4 9 -12 -12 -15 -12 -17 0 -14 8 2 13 -4 12 -15 0 -10 1 -16 5 -13 8 9 33
-45 25 -58 -3 -6 -2 -7 2 -3 5 4 17 -7 27 -25 l18 -33 -6 30 c-3 17 -7 47 -10
69 -2 21 -7 43 -11 49 -12 20 -12 97 1 90 6 -4 4 1 -3 11 -13 15 -16 39 -12
74 1 11 41 13 41 1 0 -17 4 -24 32 -51 31 -31 36 -48 12 -48 -8 0 -13 4 -9 9
3 5 1 12 -4 15 -5 4 -8 -2 -7 -11 2 -10 11 -22 22 -28 18 -9 18 -11 3 -27 -10
-9 -21 -13 -25 -10 -4 4 -4 1 0 -6 5 -9 12 -9 27 -1 23 12 41 3 20 -10 -10 -7
-10 -9 1 -13 18 -7 53 28 38 37 -9 6 -9 10 1 16 22 14 26 11 21 -20 -4 -26 -2
-28 22 -24 14 3 23 9 21 13 -3 5 -1 11 5 15 19 12 10 -32 -10 -50 -26 -23 -26
-39 0 -25 15 8 20 8 18 -1 -2 -7 5 -15 14 -17 14 -3 16 1 11 15 -5 15 -3 16 8
6 19 -18 28 -16 26 6 0 11 -4 18 -8 15 -4 -2 -11 1 -16 8 -10 17 -15 56 -6 43
11 -15 67 -49 59 -36 -10 15 3 53 15 46 5 -4 9 -11 9 -16 0 -6 -4 -7 -10 -4
-5 3 -10 2 -10 -3 0 -13 29 -24 41 -16 5 3 6 10 3 16 -4 6 1 8 15 3 23 -7 28
4 9 23 -9 9 -9 12 0 12 7 0 12 5 12 10 0 6 -15 10 -35 8 -19 -2 -34 2 -35 7 0
6 5 11 10 11 6 1 13 3 18 4 4 1 10 2 15 1 4 -1 2 8 -5 18 -7 11 -16 17 -20 15
-4 -3 -8 0 -8 6 0 6 -6 8 -12 4 -7 -4 -9 -3 -5 1 11 13 41 15 47 4 4 -5 14 -3
26 6 18 14 18 14 -5 15 -24 0 -24 0 -6 20 15 17 16 23 5 33 -8 8 -11 8 -7 1 4
-7 0 -15 -9 -18 -22 -9 -31 -7 -16 3 10 6 8 15 -12 38 -14 17 -26 36 -26 42 0
6 -4 11 -10 11 -5 0 -10 8 -10 18 0 15 2 15 11 2 8 -12 9 -10 4 8 -6 21 -5 23
13 13 20 -11 42 2 28 16 -3 4 -6 1 -6 -6 0 -8 -5 -9 -19 -1 -16 8 -22 6 -29
-7 -9 -16 -11 -16 -27 0 -16 16 -9 22 18 18 4 0 7 3 7 9 0 6 9 6 25 0 14 -5
25 -7 25 -4 0 3 12 -4 26 -15 15 -12 32 -21 38 -21 7 0 22 -9 34 -20 12 -12
22 -16 22 -10 0 5 9 2 19 -7 11 -9 17 -21 14 -26 -3 -6 -1 -7 6 -3 6 4 8 13 4
19 -3 7 2 5 13 -4 40 -33 58 -30 23 4 -19 19 -37 32 -41 30 -5 -2 -8 0 -8 5 0
5 -15 24 -32 42 -18 18 -28 30 -21 26 6 -3 14 -2 17 3 7 10 25 9 44 -2 6 -5
12 -4 12 0 0 5 15 8 33 8 17 0 55 11 82 25 34 17 64 25 95 24 25 -1 50 3 57 8
7 5 42 12 78 14 94 6 145 36 180 104 19 37 24 148 7 159 -5 3 -12 16 -16 29
-4 12 -15 22 -23 22 -9 0 -14 3 -10 6 3 4 -3 14 -14 23 -11 9 -21 26 -24 39
-7 39 -29 92 -37 92 -4 0 -7 4 -5 9 1 5 -15 25 -36 46 -26 25 -43 35 -55 30
-9 -3 -13 -3 -9 2 14 13 -56 32 -77 21 -12 -7 -16 -7 -12 0 3 6 -11 8 -38 5
-39 -5 -45 -3 -51 18 -4 12 -18 34 -31 48 -16 18 -20 27 -12 32 7 4 16 5 21 2
4 -3 11 5 14 17 3 12 9 18 12 13 3 -5 24 1 46 14 l40 23 -45 -6 c-25 -3 -58
-9 -74 -15 -21 -6 -33 -5 -44 4 -13 9 -14 9 -8 0 4 -8 2 -13 -8 -13 -8 0 -18
5 -21 10 -3 6 -12 10 -18 9 -9 0 -9 -2 1 -6 41 -16 -27 -24 -75 -8 -7 2 -15 0
-19 -6 -4 -6 -11 -6 -21 2 -12 11 -12 14 2 21 8 5 13 14 9 19 -3 5 -2 8 3 7 4
-1 29 10 56 26 46 28 62 44 31 32 -9 -4 -22 -2 -29 4 -10 8 -15 8 -21 -1 -4
-8 -3 -9 4 -5 7 4 12 2 12 -3 0 -6 -4 -12 -10 -12 -5 -1 -14 -3 -20 -4 -5 -1
-15 -3 -21 -4 -5 0 -7 -6 -3 -12 4 -8 1 -8 -12 -1 -29 14 -48 4 -32 -16 12
-15 11 -16 -4 -4 -9 8 -23 10 -30 6 -14 -8 -9 -2 36 36 26 22 28 23 22 5 -6
-16 -5 -18 5 -7 10 9 10 15 1 24 -8 8 -16 5 -31 -13 -16 -20 -22 -22 -33 -11
-7 7 -8 13 -3 12 22 -5 35 1 35 13 0 8 12 19 26 25 14 7 22 17 19 22 -3 6 -1
10 5 10 6 0 8 5 5 10 -3 6 -1 10 6 10 7 0 42 30 78 67 36 37 57 63 46 59 -11
-5 -28 -11 -37 -13 -10 -3 -18 -9 -18 -14 0 -5 -9 -9 -19 -9 -11 0 -21 -4 -23
-9 -1 -4 -14 -12 -27 -16 -18 -6 -22 -4 -15 6 6 11 5 12 -8 2 -8 -7 -18 -10
-21 -7 -4 4 -5 -2 -3 -13 3 -14 -2 -19 -20 -19 -13 0 -24 4 -24 8 0 4 -5 8
-12 8 -9 0 -9 -3 0 -12 19 -19 14 -28 -14 -28 -17 0 -23 -4 -18 -12 4 -7 4
-10 -1 -6 -4 4 -14 3 -21 -3 -15 -12 -34 -4 -34 14 0 9 2 9 8 0 6 -10 12 -10
28 2 14 11 15 14 3 9 -10 -3 -20 -1 -23 4 -3 5 2 9 12 8 9 0 16 5 14 12 -1 7
7 27 19 44 17 23 24 27 31 16 8 -10 9 -10 5 2 -2 8 0 23 5 33 5 9 6 17 3 17
-5 0 -36 -24 -60 -47 -8 -7 -18 -13 -23 -13 -5 0 -15 -7 -22 -15 -7 -9 -19
-14 -27 -11 -8 3 -13 -2 -13 -12 0 -14 -2 -15 -10 -2 -5 8 -5 17 -1 20 5 3 7
13 5 23 -1 9 2 15 6 12 15 -9 22 35 9 53 -11 14 -11 15 1 5 21 -19 28 -16 32
15 2 21 8 26 23 24 14 -2 16 0 7 6 -10 7 -11 14 -1 35 7 15 17 24 23 20 7 -4
7 -1 -1 7 -9 10 -7 17 7 33 11 11 24 34 30 51 l10 31 -23 -29 c-16 -20 -28
-27 -37 -21 -8 5 -11 4 -6 -3 3 -6 -19 -36 -49 -67 -45 -45 -60 -55 -78 -50
-15 4 -18 4 -8 -3 10 -7 11 -15 3 -27 -9 -17 -10 -17 -16 3 -4 12 -11 22 -16
22 -11 0 -21 -30 -13 -42 4 -7 1 -8 -7 -3 -9 5 -11 4 -6 -4 10 -16 26 -4 19
14 -3 8 0 15 6 15 16 0 13 -26 -5 -44 -21 -22 -34 -12 -28 22 3 15 7 38 9 52
2 16 9 24 19 24 12 -2 14 1 6 10 -5 7 -7 16 -3 20 4 3 8 14 9 24 3 16 2 16
-10 0 -7 -10 -17 -14 -21 -10 -5 4 -5 1 -1 -5 5 -8 1 -13 -10 -13 -10 0 -14
-3 -11 -7 12 -11 -14 -34 -27 -24 -7 6 -17 6 -26 1 -11 -7 -11 -10 -2 -11 6
-1 17 -3 22 -4 6 -1 13 -3 17 -4 3 0 -4 -10 -17 -21 -12 -11 -26 -18 -30 -15
-10 6 2 150 14 162 3 3 0 13 -7 21 -10 13 -9 14 2 7 11 -6 13 -1 9 24 -2 17
-1 31 3 31 4 0 6 8 4 18 -1 9 0 21 3 27 3 5 7 21 8 35 2 21 -1 18 -19 -15 -12
-22 -22 -42 -22 -45 -7 -27 -27 -60 -36 -60 -6 0 -9 -9 -6 -20 5 -19 -4 -25
-27 -21 -5 1 -4 -5 3 -13 11 -13 10 -17 -3 -22 -9 -3 -23 -3 -32 0 -8 3 -12 2
-9 -4 3 -6 13 -10 21 -10 8 0 12 -5 9 -11 -5 -6 -16 -4 -33 7 -26 17 -26 17
-12 -1 11 -14 12 -19 2 -22 -6 -3 -10 -9 -6 -14 3 -5 1 -9 -4 -9 -10 0 -14 41
-13 108 1 31 -14 46 -17 17 -1 -8 -3 -22 -4 -30 -1 -8 -6 -15 -11 -15 -5 0 -7
-7 -3 -15 3 -8 -1 -21 -9 -29 -8 -7 -12 -16 -9 -19 12 -12 -7 -28 -20 -18 -7
6 -16 8 -19 4 -4 -3 -7 -1 -7 6 0 7 6 11 13 8 6 -2 21 7 32 22 12 17 14 22 3
13 -13 -10 -17 -10 -22 3 -3 10 0 15 11 15 9 0 14 3 10 6 -3 4 -13 4 -22 0
-13 -5 -14 -10 -4 -27 9 -17 8 -20 -3 -17 -7 3 -13 9 -13 14 0 5 -4 15 -8 22
-5 7 -4 12 2 12 6 0 11 5 11 11 0 6 -6 9 -13 6 -10 -4 -12 3 -9 24 3 18 0 29
-7 29 -7 0 -9 5 -6 10 4 6 11 8 16 4 6 -3 5 3 -2 14 -7 12 -16 19 -20 16 -4
-2 -11 1 -15 7 -4 8 -3 9 4 5 7 -4 12 -2 12 4 0 6 6 8 13 4 10 -6 10 -4 0 7
-7 7 -13 23 -13 36 0 13 -4 23 -9 23 -4 0 -6 11 -3 25 2 14 2 25 -1 25 -3 0
-8 -16 -11 -35z m-3 -170 c4 -8 3 -16 -1 -19 -4 -3 -9 4 -9 15 -2 23 3 25 10
4z m287 -49 c0 -3 -4 -8 -10 -11 -5 -3 -10 -1 -10 4 0 6 5 11 10 11 6 0 10 -2
10 -4z m-89 -77 c-5 -13 -10 -20 -10 -15 -1 5 -9 2 -18 -5 -10 -8 -7 0 7 18
27 37 35 38 21 2z m84 -8 c-9 -8 -36 -10 -30 -2 2 4 11 8 20 8 8 0 13 -3 10
-6z m-572 -31 c10 10 9 11 -3 5 -12 -6 -13 -5 -3 5 15 16 28 7 20 -15 -6 -13
-47 -23 -47 -11 0 2 -3 13 -6 23 -5 16 -4 16 10 -1 13 -17 18 -18 29 -6z
m-168 -49 c-9 -8 -36 -10 -30 -2 2 4 11 8 20 8 8 0 13 -3 10 -6z m1180 -110
c3 -5 2 -12 -3 -15 -5 -3 -9 1 -9 9 0 17 3 19 12 6z m-1419 -13 c3 -4 -1 -5
-10 -4 -8 1 -18 5 -22 8 -3 4 1 5 10 4 8 -1 18 -5 22 -8z m1464 2 c0 -5 -2
-10 -4 -10 -3 0 -8 5 -11 10 -3 6 -1 10 4 10 6 0 11 -4 11 -10z m-126 -82 c-3
-4 -11 -5 -19 -1 -21 7 -19 12 4 10 11 0 18 -5 15 -9z m56 6 c0 -8 -19 -13
-24 -6 -3 5 1 9 9 9 8 0 15 -2 15 -3z m-1460 -365 c0 -8 4 -8 14 0 11 9 13 7
11 -11 -4 -41 -6 -43 -16 -25 -6 9 -13 15 -17 13 -4 -3 -8 4 -8 15 0 10 4 19
8 19 4 0 8 -5 8 -11z m5 -118 c-9 -8 -36 -10 -30 -2 2 4 11 8 20 8 8 0 13 -3
10 -6z m11 -31 c8 0 14 -4 14 -9 0 -14 -53 -6 -58 9 -3 9 1 11 12 7 10 -4 24
-7 32 -7z m21 -101 c-14 -8 -22 -8 -30 0 -8 8 -3 11 19 11 25 -1 27 -2 11 -11z
m-72 -108 c3 -5 2 -12 -3 -15 -5 -3 -9 1 -9 9 0 17 3 19 12 6z m-50 -21 c-3
-5 -12 -10 -18 -10 -7 0 -6 4 3 10 19 12 23 12 15 0z m169 -165 c-4 -8 -11
-15 -16 -15 -6 0 -5 6 2 15 7 8 14 15 16 15 2 0 1 -7 -2 -15z m82 -17 c3 -4
-1 -5 -10 -4 -8 1 -18 5 -22 8 -3 4 1 5 10 4 8 -1 18 -5 22 -8z m-80 -34 c1
-9 0 -13 -4 -10 -3 4 -7 14 -8 22 -1 9 0 13 4 10 3 -4 7 -14 8 -22z m1441 -49
c0 -8 -4 -12 -9 -9 -5 3 -6 10 -3 15 9 13 12 11 12 -6z m-253 -7 c-5 -8 -2 -9
10 -5 10 4 15 3 11 -3 -3 -6 3 -10 14 -10 12 0 21 -4 21 -10 0 -5 8 -10 18
-10 14 0 15 -2 2 -10 -20 -13 -31 -12 -27 1 1 6 -8 15 -21 20 -17 7 -21 6 -15
-4 4 -6 8 -18 9 -24 4 -23 -7 -13 -21 19 -12 30 -12 48 1 48 3 0 2 -5 -2 -12z
m-999 -12 c-11 -8 -24 -12 -28 -9 -11 7 12 23 32 23 11 0 9 -4 -4 -14z m887
-60 c7 4 8 2 4 -5 -4 -6 -1 -14 7 -17 7 -2 14 -12 14 -21 0 -14 -1 -14 -12 0
-9 12 -15 13 -23 5 -9 -9 -10 -6 -7 10 2 12 -1 22 -6 22 -6 0 -7 5 -3 12 6 9
9 9 12 0 2 -7 9 -9 14 -6z m248 -28 c0 -26 -18 -58 -33 -58 -7 0 -6 4 3 10 13
9 13 10 0 10 -9 0 -11 3 -5 8 20 14 15 32 -10 32 -14 0 -25 -4 -25 -10 0 -5
-4 -10 -8 -10 -5 0 -9 7 -9 15 0 8 4 12 9 9 4 -3 8 0 8 6 0 7 7 10 14 7 10 -4
13 -1 9 9 -5 12 -1 13 21 3 15 -7 26 -20 26 -31z m-280 -2 c0 -3 -4 -8 -10
-11 -5 -3 -10 -1 -10 4 0 6 5 11 10 11 6 0 10 -2 10 -4z m-656 -18 c-3 -4 0
-8 5 -8 6 0 11 -7 11 -15 0 -8 5 -15 10 -15 6 0 10 -5 10 -10 0 -6 -11 -3 -25
6 -20 13 -28 14 -40 4 -12 -10 -15 -10 -15 0 0 6 9 14 20 17 15 4 18 9 10 18
-7 8 -5 12 5 12 8 0 12 -4 9 -9z m616 -11 c0 -6 -3 -7 -7 -4 -3 4 -14 0 -24
-9 -11 -10 -19 -12 -24 -4 -3 6 -1 9 6 8 7 -2 14 3 15 10 3 21 4 22 19 16 8
-4 15 -11 15 -17z m75 -7 c3 -6 -1 -7 -9 -4 -18 7 -21 14 -7 14 6 0 13 -4 16
-10z m66 -7 c13 -16 12 -17 -3 -4 -17 13 -22 21 -14 21 2 0 10 -8 17 -17z
m119 -19 c0 -8 -4 -12 -10 -9 -5 3 -10 10 -10 16 0 5 5 9 10 9 6 0 10 -7 10
-16z m-638 -19 c-2 -4 1 -11 6 -14 7 -4 5 -13 -3 -25 -13 -17 -15 -17 -30 -2
-9 9 -12 16 -6 16 5 0 8 9 6 19 -2 13 2 18 13 17 9 -2 15 -6 14 -11z m515 1
c2 -2 -10 -8 -26 -14 -24 -9 -31 -8 -31 2 0 7 3 15 6 19 6 6 43 1 51 -7z
m-661 -8 c3 -4 -1 -5 -10 -4 -8 1 -18 5 -22 8 -3 4 1 5 10 4 8 -1 18 -5 22 -8z
m200 -3 c-1 -8 -5 -17 -8 -21 -5 -4 -4 16 1 34 3 9 9 -1 7 -13z m40 -20 c-1
-8 -5 -17 -8 -21 -5 -4 -4 16 1 34 3 9 9 -1 7 -13z m468 6 c7 -11 -14 -20 -31
-13 -7 2 -10 8 -7 13 7 12 31 12 38 0z m121 -1 c3 -5 -3 -10 -14 -10 -11 0
-23 5 -26 10 -3 6 3 10 14 10 11 0 23 -4 26 -10z m-349 -36 c1 -9 0 -13 -4
-10 -3 4 -7 14 -8 22 -1 9 0 13 4 10 3 -4 7 -14 8 -22z m168 -7 c-11 -6 -19
-5 -25 4 -15 24 -10 29 16 17 23 -10 24 -13 9 -21z m-214 7 c0 -2 -9 -4 -21
-4 -11 0 -18 4 -14 10 5 8 35 3 35 -6z m297 -5 c-1 -11 -9 -25 -19 -30 -14 -8
-16 -6 -11 8 6 16 24 41 30 43 1 0 1 -9 0 -21z m40 5 c-3 -4 1 -13 9 -21 22
-23 8 -29 -16 -8 -16 14 -17 20 -8 27 15 9 24 10 15 2z"/>
<path d="M1079 668 c-5 -18 -6 -38 -1 -34 7 8 12 36 6 36 -2 0 -4 -1 -5 -2z"/>
<path d="M815 2311 c-3 -5 -2 -12 3 -15 5 -3 9 1 9 9 0 17 -3 19 -12 6z"/>
<path d="M1070 2286 c0 -2 7 -7 16 -10 8 -3 12 -2 9 4 -6 10 -25 14 -25 6z"/>
<path d="M1250 2281 c0 -6 4 -13 10 -16 6 -3 7 1 4 9 -7 18 -14 21 -14 7z"/>
<path d="M1310 2256 c0 -2 8 -10 18 -17 15 -13 16 -12 3 4 -13 16 -21 21 -21
13z"/>
<path d="M957 2243 c-13 -12 -7 -23 11 -22 10 0 12 3 4 6 -6 2 -10 9 -6 14 6
10 0 12 -9 2z"/>
<path d="M1068 2223 c6 -2 18 -2 25 0 6 3 1 5 -13 5 -14 0 -19 -2 -12 -5z"/>
<path d="M981 2188 c5 -10 11 -18 12 -18 2 0 3 8 3 18 0 10 -6 19 -13 19 -8 0
-9 -6 -2 -19z"/>
<path d="M1626 2198 c3 -5 10 -6 15 -3 13 9 11 12 -6 12 -8 0 -12 -4 -9 -9z"/>
<path d="M796 2178 c3 -5 10 -6 15 -3 13 9 11 12 -6 12 -8 0 -12 -4 -9 -9z"/>
<path d="M1484 2179 c-3 -6 -2 -15 3 -20 5 -5 9 -1 9 11 0 23 -2 24 -12 9z"/>
<path d="M1075 2169 c-4 -6 -5 -12 -2 -15 2 -3 7 2 10 11 7 17 1 20 -8 4z"/>
<path d="M811 2160 c-9 -5 -4 -7 13 -7 29 0 32 2 13 10 -8 3 -20 2 -26 -3z"/>
<path d="M1586 2138 c3 -5 10 -6 15 -3 13 9 11 12 -6 12 -8 0 -12 -4 -9 -9z"/>
<path d="M1616 2133 c-6 -14 -5 -15 5 -6 7 7 10 15 7 18 -3 3 -9 -2 -12 -12z"/>
<path d="M736 2117 c3 -10 9 -15 12 -12 3 3 0 11 -7 18 -10 9 -11 8 -5 -6z"/>
<path d="M1453 2105 c0 -8 4 -12 9 -9 5 3 6 10 3 15 -9 13 -12 11 -12 -6z"/>
<path d="M755 2060 c3 -5 8 -10 11 -10 2 0 4 5 4 10 0 6 -5 10 -11 10 -5 0 -7
-4 -4 -10z"/>
<path d="M1710 2066 c0 -2 7 -7 16 -10 8 -3 12 -2 9 4 -6 10 -25 14 -25 6z"/>
<path d="M506 2046 c7 -19 20 -21 30 -3 4 6 4 9 -1 5 -4 -4 -14 -3 -22 4 -11
8 -12 7 -7 -6z"/>
<path d="M1700 2039 c0 -5 5 -7 10 -4 6 3 10 8 10 11 0 2 -4 4 -10 4 -5 0 -10
-5 -10 -11z"/>
<path d="M530 2015 c0 -9 5 -15 11 -13 6 2 11 8 11 13 0 5 -5 11 -11 13 -6 2
-11 -4 -11 -13z"/>
<path d="M1667 2005 c-20 -28 -10 -39 17 -20 12 9 15 18 9 28 -7 12 -11 11
-26 -8z m23 1 c0 -2 -8 -10 -17 -17 -16 -13 -17 -12 -4 4 13 16 21 21 21 13z"/>
<path d="M1715 2020 c-3 -6 1 -7 9 -4 18 7 21 14 7 14 -6 0 -13 -4 -16 -10z"/>
<path d="M615 1997 c31 -26 55 -26 34 -1 -6 8 -14 12 -17 10 -2 -3 -14 -1 -26
5 -13 7 -9 1 9 -14z"/>
<path d="M465 1979 c-3 -4 2 -6 10 -5 21 3 28 13 10 13 -9 0 -18 -4 -20 -8z"/>
<path d="M521 1981 c-8 -5 -9 -11 -3 -15 5 -3 12 1 16 9 6 17 6 18 -13 6z"/>
<path d="M1764 1966 c-10 -8 -17 -16 -14 -19 3 -2 14 4 24 14 23 22 18 25 -10
5z"/>
<path d="M510 1940 c0 -5 5 -10 10 -10 6 0 10 5 10 10 0 6 -4 10 -10 10 -5 0
-10 -4 -10 -10z"/>
<path d="M450 1841 c0 -5 7 -12 16 -15 14 -5 15 -4 4 9 -14 17 -20 19 -20 6z"/>
<path d="M1866 1842 c-3 -5 1 -9 9 -9 8 0 15 4 15 9 0 4 -4 8 -9 8 -6 0 -12
-4 -15 -8z"/>
<path d="M410 1820 c0 -5 5 -10 11 -10 5 0 7 5 4 10 -3 6 -8 10 -11 10 -2 0
-4 -4 -4 -10z"/>
<path d="M353 1770 c-1 -11 2 -22 6 -24 4 -3 7 4 6 14 -2 27 -10 33 -12 10z"/>
<path d="M1877 1742 c-10 -10 -17 -22 -17 -27 0 -4 9 2 20 15 11 13 20 25 20
27 0 7 -8 2 -23 -15z"/>
<path d="M370 1720 c0 -5 5 -10 10 -10 6 0 10 5 10 10 0 6 -4 10 -10 10 -5 0
-10 -4 -10 -10z"/>
<path d="M235 1651 c-3 -5 -2 -12 3 -15 5 -3 9 1 9 9 0 17 -3 19 -12 6z"/>
<path d="M330 1609 c0 -5 -4 -8 -9 -4 -5 3 -12 2 -15 -3 -2 -4 4 -9 15 -9 10
-1 19 5 19 13 0 8 -2 14 -5 14 -3 0 -5 -5 -5 -11z"/>
<path d="M312 1505 c4 -4 3 -14 -4 -22 -8 -11 -7 -12 6 -7 19 7 21 20 4 30 -7
4 -10 4 -6 -1z"/>
<path d="M274 1466 c1 -8 5 -18 8 -22 4 -3 5 1 4 10 -1 8 -5 18 -8 22 -4 3 -5
-1 -4 -10z"/>
<path d="M300 1340 c-9 -6 -10 -10 -3 -10 6 0 15 5 18 10 8 12 4 12 -15 0z"/>
<path d="M321 1321 c-8 -5 -9 -11 -3 -15 5 -3 12 1 16 9 6 17 6 18 -13 6z"/>
<path d="M315 1220 c-3 -5 -1 -10 4 -10 6 0 11 5 11 10 0 6 -2 10 -4 10 -3 0
-8 -4 -11 -10z"/>
<path d="M367 1215 c3 -8 9 -12 14 -9 12 7 11 11 -5 17 -10 4 -13 1 -9 -8z"/>
<path d="M350 1078 c0 -9 7 -19 16 -22 15 -6 15 -4 3 11 -7 10 -15 20 -16 22
-2 2 -3 -3 -3 -11z"/>
<path d="M486 1018 c3 -4 0 -8 -5 -8 -6 0 -11 -5 -11 -10 0 -6 8 -5 20 2 24
15 26 25 5 25 -8 0 -12 -4 -9 -9z"/>
<path d="M2261 886 c-1 -12 -6 -16 -16 -12 -8 3 -15 3 -15 0 0 -3 7 -12 15
-20 22 -22 19 -37 -4 -24 -27 14 -30 13 -24 -10 4 -16 2 -19 -11 -14 -9 3 -17
16 -17 28 -1 16 -2 17 -6 4 -2 -10 -10 -15 -19 -11 -8 3 -14 1 -14 -5 0 -6 6
-13 13 -15 10 -4 10 -6 0 -6 -7 -1 -13 -5 -13 -11 0 -5 13 -7 30 -3 37 7 39
-2 3 -21 l-28 -14 27 -7 c37 -10 26 -24 -15 -19 -23 2 -26 1 -13 -4 14 -6 16
-11 8 -16 -18 -11 -14 -26 5 -19 11 4 14 3 9 -5 -4 -7 -3 -12 3 -12 10 0 26
19 26 32 0 3 3 10 8 14 4 4 7 -5 7 -21 0 -23 2 -26 15 -15 22 18 31 4 12 -18
-21 -23 -22 -33 -2 -26 8 4 15 1 15 -6 0 -9 4 -9 17 1 9 8 18 13 20 12 14 -11
12 1 -3 15 -31 28 -30 48 2 27 26 -17 27 -17 21 4 -3 11 -1 23 4 26 4 3 11 -6
15 -20 6 -24 24 -36 24 -15 0 6 8 10 18 10 14 0 15 2 2 10 -10 6 -11 10 -2 10
6 0 12 5 12 11 0 5 -8 9 -17 8 -40 -4 -48 2 -23 16 l25 14 -25 9 c-21 9 -22
11 -8 17 9 4 21 4 27 1 5 -4 12 -2 16 4 3 5 1 10 -6 10 -8 0 -7 5 2 17 12 14
12 16 -1 11 -8 -3 -19 0 -25 6 -5 6 -9 9 -8 7 1 -2 -2 -12 -8 -22 -11 -22 -31
-26 -23 -5 6 17 -12 31 -21 16 -3 -5 -11 -10 -16 -10 -6 0 0 14 12 31 22 31
22 31 1 25 -15 -5 -22 -2 -25 11 -4 17 -5 17 -6 -1z m-2 -102 c3 -16 1 -17
-13 -5 -19 16 -21 34 -3 29 6 -3 14 -13 16 -24z m41 12 c0 -8 -7 -16 -15 -20
-16 -6 -16 14 0 26 14 10 15 10 15 -6z m-60 -40 c0 -9 -7 -12 -21 -9 -16 4
-17 8 -7 14 19 13 28 11 28 -5z m85 4 c3 -5 -3 -10 -15 -10 -12 0 -18 5 -15
10 3 6 10 10 15 10 5 0 12 -4 15 -10z m-65 -34 c0 -8 -7 -16 -15 -20 -13 -4
-14 -2 -5 14 13 23 20 26 20 6z m37 -1 c9 -25 -4 -29 -17 -6 -7 15 -7 21 0 21
6 0 13 -7 17 -15z"/>
<path d="M514 835 c3 -23 12 -26 13 -5 1 11 -2 20 -7 20 -4 0 -7 -7 -6 -15z"/>
<path d="M1853 825 c0 -8 4 -12 9 -9 5 3 6 10 3 15 -9 13 -12 11 -12 -6z"/>
<path d="M376 793 c-6 -14 -5 -15 5 -6 7 7 10 15 7 18 -3 3 -9 -2 -12 -12z"/>
<path d="M615 780 c-3 -5 -2 -10 4 -10 5 0 13 5 16 10 3 6 2 10 -4 10 -5 0
-13 -4 -16 -10z"/>
<path d="M710 686 c0 -2 7 -7 16 -10 8 -3 12 -2 9 4 -6 10 -25 14 -25 6z"/>
<path d="M1313 671 c0 -11 5 -18 9 -15 4 3 5 11 1 19 -7 21 -12 19 -10 -4z"/>
<path d="M1467 668 c9 -10 21 -18 27 -18 6 0 3 5 -8 11 -15 9 -16 13 -5 20 10
6 7 8 -8 6 -21 -1 -21 -2 -6 -19z"/>
<path d="M800 639 c0 -5 5 -7 10 -4 6 3 10 8 10 11 0 2 -4 4 -10 4 -5 0 -10
-5 -10 -11z"/>
<path d="M1466 635 c10 -8 23 -15 28 -15 6 0 1 7 -10 15 -10 8 -23 15 -28 15
-6 0 -1 -7 10 -15z"/>
<path d="M955 600 c-4 -6 1 -7 11 -3 13 5 15 3 9 -7 -5 -9 -4 -11 4 -6 6 4 9
12 6 17 -8 12 -22 12 -30 -1z"/>
<path d="M1475 600 c-3 -5 -1 -10 4 -10 6 0 11 5 11 10 0 6 -2 10 -4 10 -3 0
-8 -4 -11 -10z"/>
<path d="M1055 580 c-3 -6 1 -7 9 -4 18 7 21 14 7 14 -6 0 -13 -4 -16 -10z"/>
<path d="M1073 555 c0 -8 4 -12 9 -9 5 3 6 10 3 15 -9 13 -12 11 -12 -6z"/>
<path d="M1469 543 c-13 -16 -12 -17 4 -4 16 13 21 21 13 21 -2 0 -10 -8 -17
-17z"/>
<path d="M2032 525 c6 -27 -1 -32 -19 -14 -6 6 -16 10 -23 7 -7 -2 -1 -14 14
-31 29 -31 36 -70 11 -61 -8 4 -15 9 -15 13 0 4 -10 13 -23 18 -23 11 -23 10
-17 -32 6 -36 4 -42 -10 -38 -10 3 -23 22 -30 44 -14 43 -35 54 -28 15 5 -22
3 -24 -20 -15 -34 13 -41 2 -12 -18 l23 -16 -23 -9 c-19 -7 -20 -10 -9 -24 8
-10 15 -12 17 -5 2 6 8 9 13 5 5 -3 9 0 9 7 0 8 5 7 17 -2 14 -12 15 -12 9 -1
-7 12 -4 12 15 2 23 -13 23 -13 -14 -29 -35 -15 -49 -31 -26 -31 5 0 8 -4 5
-8 -2 -4 7 -9 21 -10 35 -3 39 -8 16 -21 -12 -6 -34 -6 -56 -1 -41 9 -52 -5
-15 -19 l22 -8 -22 -14 c-32 -20 -27 -31 11 -25 17 3 27 3 20 0 -15 -7 -5 -34
13 -34 8 0 13 3 13 8 -4 21 2 42 10 38 5 -4 7 4 3 16 -5 21 -4 22 12 9 11 -9
16 -24 13 -37 -6 -31 18 -38 38 -11 9 12 13 15 10 7 -4 -8 1 -6 9 4 16 19 16
19 16 -2 0 -11 -11 -33 -25 -48 -13 -14 -22 -30 -19 -35 9 -15 20 -10 32 14 7
12 11 15 11 7 -3 -35 2 -50 15 -50 8 0 13 8 11 18 -4 27 6 35 21 15 11 -15 15
-16 23 -4 6 9 -1 22 -23 42 -17 16 -25 29 -18 29 6 0 12 5 12 11 0 5 -5 7 -12
3 -7 -4 -8 -3 -4 5 5 8 16 4 38 -14 16 -14 33 -25 37 -25 9 0 7 36 -4 63 -5
12 -3 17 6 15 19 -4 38 -29 39 -50 0 -10 9 -22 21 -28 19 -11 20 -10 9 10 -12
23 -4 43 9 22 5 -9 11 -9 26 2 18 13 18 14 -3 20 -28 9 -28 22 -1 29 12 3 18
10 15 16 -4 6 -18 6 -38 0 -43 -12 -74 -3 -57 17 12 15 35 19 42 7 2 -5 2 -2
1 5 -2 6 1 12 6 12 6 0 10 5 10 10 0 6 -6 10 -14 10 -7 0 -19 7 -26 15 -7 8
-16 12 -21 9 -5 -3 -9 -1 -9 4 0 5 9 12 20 15 13 3 18 1 13 -6 -5 -9 -3 -9 8
0 9 8 20 9 29 3 22 -14 37 -12 37 5 0 8 -9 15 -19 15 -25 0 -23 16 4 24 17 4
20 8 11 17 -8 8 -16 8 -31 0 -16 -9 -19 -7 -18 9 2 33 -17 27 -26 -7 -5 -18
-16 -37 -26 -42 -14 -7 -17 -5 -17 15 0 13 3 24 7 24 4 0 5 7 2 15 -8 20 -21
19 -51 -5 -15 -11 -28 -18 -30 -16 -9 8 8 46 18 41 5 -4 9 1 9 10 0 11 5 15
14 12 10 -4 12 0 9 14 -6 21 -18 25 -28 9 -7 -12 -26 -14 -24 -2 4 21 -2 42
-12 42 -7 0 -9 -10 -7 -25z m56 -166 c-22 -14 -36 -10 -33 9 2 9 4 21 4 25 1
5 6 5 12 2 6 -4 13 3 17 16 6 21 7 20 10 -10 2 -20 -2 -37 -10 -42z m-75 40
c10 -11 17 -29 15 -40 -3 -17 -5 -18 -20 -7 -19 14 -35 68 -21 68 5 0 17 -9
26 -21z m-23 -71 c0 -5 5 -6 10 -3 6 3 10 2 10 -4 0 -15 -53 -27 -58 -13 -2 7
-8 10 -12 7 -5 -3 -12 0 -16 6 -4 7 -3 9 2 6 6 -3 16 -2 22 2 17 10 42 10 42
-1z m152 1 c20 -11 20 -11 -3 -23 -20 -10 -28 -10 -47 2 -38 25 8 44 50 21z
m-77 -49 c-3 -4 3 -7 12 -6 10 0 19 -10 24 -26 9 -33 0 -35 -29 -9 -22 18 -32
68 -12 56 6 -4 8 -10 5 -15z m-35 -13 c0 -21 -32 -52 -42 -41 -3 2 -3 16 0 30
3 17 9 23 19 20 8 -3 11 -1 8 4 -3 6 -1 10 4 10 6 0 11 -10 11 -23z m-60 -11
c0 -3 -4 -8 -10 -11 -5 -3 -10 -1 -10 4 0 6 5 11 10 11 6 0 10 -2 10 -4z"/>
<path d="M1360 520 c-9 -6 -10 -10 -3 -10 6 0 15 5 18 10 8 12 4 12 -15 0z"/>
<path d="M1096 482 c-3 -5 1 -9 9 -9 8 0 12 4 9 9 -3 4 -7 8 -9 8 -2 0 -6 -4
-9 -8z"/>
<path d="M1390 380 c0 -5 -7 -7 -15 -4 -20 8 -19 -1 1 -21 21 -20 10 -32 -12
-14 -16 13 -17 11 -12 -14 4 -22 3 -25 -8 -16 -8 6 -14 18 -14 25 0 12 -4 12
-20 2 -14 -9 -16 -14 -7 -20 9 -6 9 -8 0 -8 -7 0 -13 -4 -13 -9 0 -6 9 -8 20
-6 11 2 22 0 25 -6 4 -5 -2 -9 -12 -9 -17 -1 -17 -1 0 -14 24 -18 21 -27 -6
-21 -18 5 -23 2 -23 -15 0 -13 5 -19 14 -15 7 2 10 1 7 -4 -3 -5 -1 -12 5 -16
9 -6 15 8 11 28 -1 5 4 7 11 4 7 -2 12 -12 10 -21 -3 -15 0 -16 17 -6 25 13
27 3 4 -22 -9 -11 -11 -18 -5 -18 7 0 12 6 13 13 0 6 4 3 9 -8 5 -11 9 -14 9
-6 1 7 7 11 16 7 18 -6 20 5 3 22 -6 6 -8 15 -3 19 4 5 10 2 12 -5 3 -6 9 -10
13 -7 5 3 7 12 3 20 -3 8 -1 15 5 15 5 0 12 -10 15 -21 5 -20 7 -20 21 -6 9 9
16 23 16 31 0 13 -6 15 -26 10 -19 -5 -25 -4 -20 5 4 6 12 9 17 6 17 -11 9 18
-8 32 -16 12 -15 13 8 7 15 -3 30 -1 33 5 4 6 -1 11 -11 12 -10 0 -13 3 -5 6
6 2 12 9 12 14 0 4 -7 5 -17 2 -12 -5 -14 -3 -8 7 5 9 4 11 -3 6 -7 -4 -12
-14 -12 -22 0 -8 -5 -14 -11 -14 -6 0 -9 9 -6 20 5 21 -7 28 -18 10 -3 -5 -11
-10 -17 -10 -6 0 -4 8 5 18 19 20 23 37 7 27 -5 -3 -10 -1 -10 4 0 6 -4 11
-10 11 -5 0 -10 -4 -10 -10z m0 -81 c0 -5 -4 -9 -10 -9 -5 0 -10 7 -10 16 0 8
5 12 10 9 6 -3 10 -10 10 -16z m35 2 c-3 -6 -11 -11 -17 -11 -6 0 -6 6 2 15
14 17 26 13 15 -4z m-45 -36 c15 -18 5 -49 -12 -39 -9 6 -9 9 0 12 17 5 15 22
-3 22 -8 0 -15 5 -15 10 0 15 16 12 30 -5z m70 11 c0 -11 -19 -15 -25 -6 -3 5
1 10 9 10 9 0 16 -2 16 -4z m-20 -47 c0 -18 -18 -9 -23 12 -4 16 -3 18 9 8 8
-6 14 -15 14 -20z"/>
</g>
</svg>
